<svg width="60" height="60" viewBox="0 0 60 60" fill="none" xmlns="http://www.w3.org/2000/svg">
<path fill-rule="evenodd" clip-rule="evenodd" d="M29.9985 11.5385C38.7911 11.5385 45.9178 14.8318 45.9178 18.8884C45.9178 22.9479 38.788 26.2383 29.9985 26.2383C21.2089 26.2383 14.0792 22.9449 14.0792 18.8884C14.0792 14.8318 21.2089 11.5385 29.9985 11.5385ZM14.0792 36.1273V41.7704C16.9116 51.6955 44.8945 49.7784 45.9208 41.2626V35.6255C44.5229 44.9736 16.3177 45.6467 14.0792 36.1273ZM14 21.4365V26.9474C16.8324 36.6411 44.9706 35.331 46 27.0165V21.5086C44.599 30.6404 16.2385 30.7335 14 21.4365ZM14 28.558V34.2011C16.8324 44.1262 44.9706 42.786 46 34.2703V28.6331C44.599 37.9813 16.2385 38.0774 14 28.558Z" fill="#DF124C"/>
</svg>
